<?xml version="1.0" encoding="UTF-8" standalone="no"?>
<!DOCTYPE svg PUBLIC "-//W3C//DTD SVG 20010904//EN"
              "http://www.w3.org/TR/2001/REC-SVG-20010904/DTD/svg10.dtd">

<svg xmlns="http://www.w3.org/2000/svg"
     width="251.389mm" height="251.389mm"
     viewBox="0 0 950 950">
  <path id="Seleção #1"
        fill="none" stroke="black" stroke-width="1"
        d="M 462.00,111.42
           C 456.34,112.23 452.57,111.94 447.00,112.00
             447.00,112.00 431.00,113.17 431.00,113.17
             406.26,115.54 378.80,121.55 355.00,128.72
             257.52,158.08 173.61,229.53 129.11,321.00
             73.36,435.59 82.83,568.15 151.69,675.00
             172.89,707.90 201.48,738.17 232.00,762.55
             266.96,790.48 307.45,811.69 350.00,825.34
             378.63,834.53 406.95,840.89 437.00,843.09
             437.00,843.09 447.00,844.04 447.00,844.04
             447.00,844.04 458.00,844.04 458.00,844.04
             458.00,844.04 470.00,845.00 470.00,845.00
             470.00,845.00 494.00,844.00 494.00,844.00
             494.00,844.00 505.00,843.09 505.00,843.09
             548.73,840.03 591.98,827.83 632.00,810.14
             720.55,770.99 793.64,692.84 826.95,602.00
             843.28,557.45 849.55,513.24 849.00,466.00
             849.00,466.00 848.09,456.00 848.09,456.00
             848.09,456.00 843.25,415.00 843.25,415.00
             819.52,278.60 718.27,169.77 587.00,128.98
             560.35,120.69 532.86,114.86 505.00,112.91
             505.00,112.91 495.00,111.96 495.00,111.96
             495.00,111.96 484.00,111.96 484.00,111.96
             476.08,111.37 470.14,110.43 462.00,111.42 Z
           M 452.00,141.09
           C 452.00,141.09 459.00,141.09 459.00,141.09
             459.00,141.09 482.00,141.09 482.00,141.09
             482.00,141.09 494.00,141.91 494.00,141.91
             521.73,143.82 548.32,148.28 575.00,156.28
             638.25,175.26 697.95,213.41 740.56,264.00
             781.60,312.72 808.63,372.71 816.72,436.00
             819.06,454.38 819.03,472.50 819.00,491.00
             819.00,491.00 818.09,503.00 818.09,503.00
             815.47,541.10 806.03,579.35 789.78,614.00
             775.48,644.50 757.78,672.97 735.07,698.00
             705.71,730.36 671.17,757.45 632.00,777.03
             592.46,796.80 549.95,808.91 506.00,813.17
             506.00,813.17 482.00,815.00 482.00,815.00
             482.00,815.00 457.00,815.00 457.00,815.00
             457.00,815.00 447.00,814.09 447.00,814.09
             413.86,811.81 381.27,805.49 350.00,794.05
             297.09,774.70 250.66,745.40 212.09,704.00
             115.25,600.06 94.65,446.10 162.31,321.00
             203.98,243.95 276.75,185.05 360.00,158.34
             378.41,152.44 401.84,146.73 421.00,144.28
             421.00,144.28 452.00,141.09 452.00,141.09 Z" />
</svg>
