<?xml version="1.0" encoding="UTF-8" standalone="no"?>
<!DOCTYPE svg PUBLIC "-//W3C//DTD SVG 20010904//EN"
              "http://www.w3.org/TR/2001/REC-SVG-20010904/DTD/svg10.dtd">

<svg xmlns="http://www.w3.org/2000/svg"
     width="251.389mm" height="251.389mm"
     viewBox="0 0 950 950">
  <path id="Seleção #3"
        fill="none" stroke="black" stroke-width="1"
        d="M 374.00,287.00
           C 374.00,287.00 374.00,381.00 374.00,381.00
             374.00,381.00 280.00,381.00 280.00,381.00
             280.00,381.00 280.00,425.00 280.00,425.00
             280.00,425.00 374.00,425.00 374.00,425.00
             374.00,425.00 374.00,531.00 374.00,531.00
             374.00,531.00 280.00,531.00 280.00,531.00
             280.00,531.00 280.00,575.00 280.00,575.00
             280.00,575.00 374.00,575.00 374.00,575.00
             374.00,575.00 374.00,668.00 374.00,668.00
             374.00,668.00 418.00,668.00 418.00,668.00
             418.00,668.00 418.00,575.00 418.00,575.00
             418.00,575.00 524.00,575.00 524.00,575.00
             524.00,575.00 524.00,668.00 524.00,668.00
             524.00,668.00 568.00,668.00 568.00,668.00
             568.00,668.00 568.00,575.00 568.00,575.00
             568.00,575.00 661.00,575.00 661.00,575.00
             661.00,575.00 661.00,531.00 661.00,531.00
             661.00,531.00 568.00,531.00 568.00,531.00
             568.00,531.00 568.00,425.00 568.00,425.00
             568.00,425.00 661.00,425.00 661.00,425.00
             661.00,425.00 661.00,381.00 661.00,381.00
             661.00,381.00 568.00,381.00 568.00,381.00
             568.00,381.00 568.00,287.00 568.00,287.00
             568.00,287.00 524.00,287.00 524.00,287.00
             524.00,287.00 524.00,381.00 524.00,381.00
             524.00,381.00 418.00,381.00 418.00,381.00
             418.00,381.00 418.00,287.00 418.00,287.00
             418.00,287.00 374.00,287.00 374.00,287.00 Z
           M 524.00,425.00
           C 524.00,425.00 524.00,531.00 524.00,531.00
             524.00,531.00 418.00,531.00 418.00,531.00
             418.00,531.00 418.00,425.00 418.00,425.00
             418.00,425.00 524.00,425.00 524.00,425.00 Z" />
</svg>
