<?xml version="1.0" encoding="UTF-8" standalone="no"?>
<svg xmlns="http://www.w3.org/2000/svg"
     width="251.389mm" height="251.389mm"
     viewBox="0 0 950 950">

  <path id="Hash"
      fill="#FFFFFF" stroke="black" stroke-width="0"
      d="M 374.00,287.00
           C 374.00,287.00 374.00,381.00 374.00,381.00
             374.00,381.00 280.00,381.00 280.00,381.00
             280.00,381.00 280.00,425.00 280.00,425.00
             280.00,425.00 374.00,425.00 374.00,425.00
             374.00,425.00 374.00,531.00 374.00,531.00
             374.00,531.00 280.00,531.00 280.00,531.00
             280.00,531.00 280.00,575.00 280.00,575.00
             280.00,575.00 374.00,575.00 374.00,575.00
             374.00,575.00 374.00,668.00 374.00,668.00
             374.00,668.00 418.00,668.00 418.00,668.00
             418.00,668.00 418.00,575.00 418.00,575.00
             418.00,575.00 524.00,575.00 524.00,575.00
             524.00,575.00 524.00,668.00 524.00,668.00
             524.00,668.00 568.00,668.00 568.00,668.00
             568.00,668.00 568.00,575.00 568.00,575.00
             568.00,575.00 661.00,575.00 661.00,575.00
             661.00,575.00 661.00,531.00 661.00,531.00
             661.00,531.00 568.00,531.00 568.00,531.00
             568.00,531.00 568.00,425.00 568.00,425.00
             568.00,425.00 661.00,425.00 661.00,425.00
             661.00,425.00 661.00,381.00 661.00,381.00
             661.00,381.00 568.00,381.00 568.00,381.00
             568.00,381.00 568.00,287.00 568.00,287.00
             568.00,287.00 524.00,287.00 524.00,287.00
             524.00,287.00 524.00,381.00 524.00,381.00
             524.00,381.00 418.00,381.00 418.00,381.00
             418.00,381.00 418.00,287.00 418.00,287.00
             418.00,287.00 374.00,287.00 374.00,287.00 Z
           M 524.00,425.00
           C 524.00,425.00 524.00,531.00 524.00,531.00
             524.00,531.00 418.00,531.00 418.00,531.00
             418.00,531.00 418.00,425.00 418.00,425.00
             418.00,425.00 524.00,425.00 524.00,425.00 Z" />

  <path id="Inner"
      fill="#A6F251" stroke="black" stroke-width="0"
      d="M 445.00,142.21
           C 445.00,142.21 425.00,144.28 425.00,144.28
             407.11,146.51 383.21,151.68 366.00,157.02
             274.12,185.58 194.80,249.80 154.31,338.00
             131.70,387.24 122.37,434.00 123.00,488.00
             123.00,488.00 123.91,498.00 123.91,498.00
             125.14,516.02 127.35,533.33 131.35,551.00
             157.41,666.12 244.49,758.50 356.00,795.67
             383.60,804.87 411.98,810.97 441.00,813.09
             441.00,813.09 451.00,814.00 451.00,814.00
             473.08,814.25 495.07,814.38 517.00,811.72
             563.98,806.01 611.15,789.28 652.00,765.58
             686.14,745.76 720.14,716.76 744.80,686.00
             769.27,655.47 788.22,622.05 800.92,585.00
             842.06,465.03 810.61,332.78 720.91,243.09
             688.43,210.61 647.58,184.43 605.00,167.40
             573.92,154.97 544.28,147.40 511.00,143.84
             511.00,143.84 489.00,142.21 489.00,142.21
             489.00,142.21 445.00,142.21 445.00,142.21 Z
           M 419.00,287.00
           C 419.00,287.00 419.00,380.00 419.00,380.00
             419.00,380.00 523.00,380.00 523.00,380.00
             523.00,380.00 523.00,287.00 523.00,287.00
             523.00,287.00 569.00,287.00 569.00,287.00
             569.00,287.00 569.00,380.00 569.00,380.00
             569.00,380.00 662.00,380.00 662.00,380.00
             662.00,380.00 662.00,426.00 662.00,426.00
             662.00,426.00 569.00,426.00 569.00,426.00
             569.00,426.00 569.00,530.00 569.00,530.00
             569.00,530.00 662.00,530.00 662.00,530.00
             662.00,530.00 662.00,576.00 662.00,576.00
             662.00,576.00 569.00,576.00 569.00,576.00
             569.00,576.00 569.00,669.00 569.00,669.00
             569.00,669.00 523.00,669.00 523.00,669.00
             523.00,669.00 523.00,576.00 523.00,576.00
             523.00,576.00 419.00,576.00 419.00,576.00
             419.00,576.00 419.00,669.00 419.00,669.00
             419.00,669.00 373.00,669.00 373.00,669.00
             373.00,669.00 373.00,576.00 373.00,576.00
             373.00,576.00 280.00,576.00 280.00,576.00
             280.00,576.00 280.00,530.00 280.00,530.00
             280.00,530.00 373.00,530.00 373.00,530.00
             373.00,530.00 373.00,426.00 373.00,426.00
             373.00,426.00 280.00,426.00 280.00,426.00
             280.00,426.00 280.00,380.00 280.00,380.00
             280.00,380.00 373.00,380.00 373.00,380.00
             373.00,380.00 373.00,287.00 373.00,287.00
             373.00,287.00 419.00,287.00 419.00,287.00 Z
           M 419.00,426.00
           C 419.00,426.00 419.00,530.00 419.00,530.00
             419.00,530.00 523.00,530.00 523.00,530.00
             523.00,530.00 523.00,426.00 523.00,426.00
             523.00,426.00 419.00,426.00 419.00,426.00 Z" />

  <path id="Border"
      fill="#58A402" stroke="black" stroke-width="0"
      d="M 462.00,111.42
           C 456.34,112.23 452.57,111.94 447.00,112.00
             447.00,112.00 431.00,113.17 431.00,113.17
             406.26,115.54 378.80,121.55 355.00,128.72
             257.52,158.08 173.61,229.53 129.11,321.00
             73.36,435.59 82.83,568.15 151.69,675.00
             172.89,707.90 201.48,738.17 232.00,762.55
             266.96,790.48 307.45,811.69 350.00,825.34
             378.63,834.53 406.95,840.89 437.00,843.09
             437.00,843.09 447.00,844.04 447.00,844.04
             447.00,844.04 458.00,844.04 458.00,844.04
             458.00,844.04 470.00,845.00 470.00,845.00
             470.00,845.00 494.00,844.00 494.00,844.00
             494.00,844.00 505.00,843.09 505.00,843.09
             548.73,840.03 591.98,827.83 632.00,810.14
             720.55,770.99 793.64,692.84 826.95,602.00
             843.28,557.45 849.55,513.24 849.00,466.00
             849.00,466.00 848.09,456.00 848.09,456.00
             848.09,456.00 843.25,415.00 843.25,415.00
             819.52,278.60 718.27,169.77 587.00,128.98
             560.35,120.69 532.86,114.86 505.00,112.91
             505.00,112.91 495.00,111.96 495.00,111.96
             495.00,111.96 484.00,111.96 484.00,111.96
             476.08,111.37 470.14,110.43 462.00,111.42 Z
           M 452.00,141.09
           C 452.00,141.09 459.00,141.09 459.00,141.09
             459.00,141.09 482.00,141.09 482.00,141.09
             482.00,141.09 494.00,141.91 494.00,141.91
             521.73,143.82 548.32,148.28 575.00,156.28
             638.25,175.26 697.95,213.41 740.56,264.00
             781.60,312.72 808.63,372.71 816.72,436.00
             819.06,454.38 819.03,472.50 819.00,491.00
             819.00,491.00 818.09,503.00 818.09,503.00
             815.47,541.10 806.03,579.35 789.78,614.00
             775.48,644.50 757.78,672.97 735.07,698.00
             705.71,730.36 671.17,757.45 632.00,777.03
             592.46,796.80 549.95,808.91 506.00,813.17
             506.00,813.17 482.00,815.00 482.00,815.00
             482.00,815.00 457.00,815.00 457.00,815.00
             457.00,815.00 447.00,814.09 447.00,814.09
             413.86,811.81 381.27,805.49 350.00,794.05
             297.09,774.70 250.66,745.40 212.09,704.00
             115.25,600.06 94.65,446.10 162.31,321.00
             203.98,243.95 276.75,185.05 360.00,158.34
             378.41,152.44 401.84,146.73 421.00,144.28
             421.00,144.28 452.00,141.09 452.00,141.09 Z" />

</svg>
