<?xml version="1.0" encoding="UTF-8" standalone="no"?>
<!DOCTYPE svg PUBLIC "-//W3C//DTD SVG 20010904//EN"
              "http://www.w3.org/TR/2001/REC-SVG-20010904/DTD/svg10.dtd">

<svg xmlns="http://www.w3.org/2000/svg"
     width="251.389mm" height="251.389mm"
     viewBox="0 0 950 950">
  <path id="Seleção #2"
        fill="none" stroke="black" stroke-width="1"
        d="M 445.00,142.21
           C 445.00,142.21 425.00,144.28 425.00,144.28
             407.11,146.51 383.21,151.68 366.00,157.02
             274.12,185.58 194.80,249.80 154.31,338.00
             131.70,387.24 122.37,434.00 123.00,488.00
             123.00,488.00 123.91,498.00 123.91,498.00
             125.14,516.02 127.35,533.33 131.35,551.00
             157.41,666.12 244.49,758.50 356.00,795.67
             383.60,804.87 411.98,810.97 441.00,813.09
             441.00,813.09 451.00,814.00 451.00,814.00
             473.08,814.25 495.07,814.38 517.00,811.72
             563.98,806.01 611.15,789.28 652.00,765.58
             686.14,745.76 720.14,716.76 744.80,686.00
             769.27,655.47 788.22,622.05 800.92,585.00
             842.06,465.03 810.61,332.78 720.91,243.09
             688.43,210.61 647.58,184.43 605.00,167.40
             573.92,154.97 544.28,147.40 511.00,143.84
             511.00,143.84 489.00,142.21 489.00,142.21
             489.00,142.21 445.00,142.21 445.00,142.21 Z
           M 419.00,287.00
           C 419.00,287.00 419.00,380.00 419.00,380.00
             419.00,380.00 523.00,380.00 523.00,380.00
             523.00,380.00 523.00,287.00 523.00,287.00
             523.00,287.00 569.00,287.00 569.00,287.00
             569.00,287.00 569.00,380.00 569.00,380.00
             569.00,380.00 662.00,380.00 662.00,380.00
             662.00,380.00 662.00,426.00 662.00,426.00
             662.00,426.00 569.00,426.00 569.00,426.00
             569.00,426.00 569.00,530.00 569.00,530.00
             569.00,530.00 662.00,530.00 662.00,530.00
             662.00,530.00 662.00,576.00 662.00,576.00
             662.00,576.00 569.00,576.00 569.00,576.00
             569.00,576.00 569.00,669.00 569.00,669.00
             569.00,669.00 523.00,669.00 523.00,669.00
             523.00,669.00 523.00,576.00 523.00,576.00
             523.00,576.00 419.00,576.00 419.00,576.00
             419.00,576.00 419.00,669.00 419.00,669.00
             419.00,669.00 373.00,669.00 373.00,669.00
             373.00,669.00 373.00,576.00 373.00,576.00
             373.00,576.00 280.00,576.00 280.00,576.00
             280.00,576.00 280.00,530.00 280.00,530.00
             280.00,530.00 373.00,530.00 373.00,530.00
             373.00,530.00 373.00,426.00 373.00,426.00
             373.00,426.00 280.00,426.00 280.00,426.00
             280.00,426.00 280.00,380.00 280.00,380.00
             280.00,380.00 373.00,380.00 373.00,380.00
             373.00,380.00 373.00,287.00 373.00,287.00
             373.00,287.00 419.00,287.00 419.00,287.00 Z
           M 419.00,426.00
           C 419.00,426.00 419.00,530.00 419.00,530.00
             419.00,530.00 523.00,530.00 523.00,530.00
             523.00,530.00 523.00,426.00 523.00,426.00
             523.00,426.00 419.00,426.00 419.00,426.00 Z" />
</svg>
