<?xml version="1.0" encoding="UTF-8" standalone="no"?>
<svg xmlns="http://www.w3.org/2000/svg"
     width="198.465mm" height="198.465mm"
     viewBox="0 0 750 750">

    <path id="Border"
        fill="#58A402" stroke="none" stroke-width="0"
        d="M 366.00,0.42
           C 360.34,1.23 356.57,0.94 351.00,1.00
             351.00,1.00 336.00,2.17 336.00,2.17
             311.77,4.52 283.20,10.80 260.00,18.19
             161.45,49.60 78.48,122.98 35.31,217.00
             -31.70,362.94 0.94,537.92 119.00,647.91
             156.90,683.22 196.66,707.34 245.00,725.42
             276.10,737.06 308.87,744.67 342.00,747.09
             342.00,747.09 352.00,748.00 352.00,748.00
             352.00,748.00 374.00,749.00 374.00,749.00
             414.37,749.06 457.77,742.03 496.00,728.92
             615.14,688.06 705.12,591.85 737.27,470.00
             742.78,449.09 748.97,414.38 749.00,393.00
             749.00,393.00 749.00,355.00 749.00,355.00
             749.00,355.00 748.09,345.00 748.09,345.00
             746.36,320.22 741.99,295.89 735.14,272.00
             700.04,149.46 609.36,56.44 488.00,17.66
             462.45,9.49 435.78,3.78 409.00,1.91
             409.00,1.91 399.00,1.00 399.00,1.00
             388.03,0.88 376.92,-0.91 366.00,0.42 Z
           M 359.00,30.14
           C 359.00,30.14 386.00,30.14 386.00,30.14
             386.00,30.14 398.00,30.91 398.00,30.91
             430.80,33.17 462.11,39.02 493.00,50.58
             535.75,66.57 571.98,87.40 606.00,118.17
             634.54,143.98 659.38,175.14 677.69,209.00
             745.81,334.94 730.54,490.03 636.87,599.00
             608.13,632.43 573.04,660.19 534.00,680.68
             534.00,680.68 524.00,685.26 524.00,685.26
             469.83,711.47 419.65,719.69 360.00,719.00
             360.00,719.00 350.00,718.09 350.00,718.09
             321.71,716.15 295.05,710.52 268.00,702.02
             238.35,692.71 208.83,677.89 183.00,660.67
             153.72,641.15 130.92,620.02 108.43,593.00
             93.55,575.12 81.04,555.55 70.22,535.00
             18.07,435.97 17.84,317.94 67.81,218.00
             109.56,134.50 185.30,72.59 274.00,45.02
             290.73,39.83 310.62,35.57 328.00,33.28
             328.00,33.28 346.00,31.09 346.00,31.09
             346.00,31.09 359.00,30.14 359.00,30.14 Z" />

    <path id="Inner"
        fill="#FFFFFF" stroke="none" stroke-width="0"
        d="M 351.00,31.21
           C 351.00,31.21 341.00,32.17 341.00,32.17
             341.00,32.17 313.00,36.08 313.00,36.08
             291.97,39.77 270.96,45.90 251.00,53.42
             160.53,87.56 87.52,161.69 53.42,252.00
             1.75,388.89 41.56,544.21 154.00,638.56
             183.17,663.04 219.32,683.75 255.00,697.05
             282.41,707.27 313.80,714.95 343.00,717.09
             343.00,717.09 353.00,718.00 353.00,718.00
             353.00,718.00 391.00,718.00 391.00,718.00
             391.00,718.00 403.00,717.09 403.00,717.09
             431.31,715.14 459.06,709.47 486.00,700.49
             591.82,665.21 673.55,578.48 705.28,472.00
             712.28,448.51 716.41,424.41 718.09,400.00
             718.09,400.00 719.00,388.00 719.00,388.00
             719.00,388.00 719.00,359.00 719.00,359.00
             719.00,359.00 718.09,349.00 718.09,349.00
             716.12,320.30 710.77,292.24 701.34,265.00
             701.34,265.00 692.57,241.00 692.57,241.00
             652.51,147.08 577.25,77.85 480.00,46.66
             454.92,38.61 430.26,33.83 404.00,31.91
             404.00,31.91 392.00,31.21 392.00,31.21
             392.00,31.21 351.00,31.21 351.00,31.21 Z
           M 327.00,183.00
           C 327.00,183.00 327.00,277.00 327.00,277.00
             327.00,277.00 431.00,277.00 431.00,277.00
             431.00,277.00 431.00,183.00 431.00,183.00
             431.00,183.00 477.00,183.00 477.00,183.00
             477.00,183.00 477.00,277.00 477.00,277.00
             477.00,277.00 570.00,277.00 570.00,277.00
             570.00,277.00 570.00,322.00 570.00,322.00
             570.00,322.00 477.00,322.00 477.00,322.00
             477.00,322.00 477.00,426.00 477.00,426.00
             477.00,426.00 570.00,426.00 570.00,426.00
             570.00,426.00 570.00,472.00 570.00,472.00
             570.00,472.00 477.00,472.00 477.00,472.00
             477.00,472.00 477.00,557.00 477.00,557.00
             477.00,557.00 477.00,565.96 477.00,565.96
             477.00,565.96 463.00,566.00 463.00,566.00
             463.00,566.00 431.00,566.00 431.00,566.00
             431.00,566.00 431.00,472.00 431.00,472.00
             431.00,472.00 327.00,472.00 327.00,472.00
             327.00,472.00 327.00,566.00 327.00,566.00
             327.00,566.00 290.00,566.00 290.00,566.00
             290.00,566.00 280.96,566.00 280.96,566.00
             280.96,566.00 281.00,559.00 281.00,559.00
             281.00,559.00 281.00,543.00 281.00,543.00
             281.00,543.00 281.00,472.00 281.00,472.00
             281.00,472.00 188.00,472.00 188.00,472.00
             188.00,472.00 188.00,426.00 188.00,426.00
             188.00,426.00 281.00,426.00 281.00,426.00
             281.00,426.00 281.00,322.00 281.00,322.00
             281.00,322.00 188.00,322.00 188.00,322.00
             188.00,322.00 188.00,277.00 188.00,277.00
             188.00,277.00 281.00,277.00 281.00,277.00
             281.00,277.00 281.00,183.00 281.00,183.00
             281.00,183.00 327.00,183.00 327.00,183.00 Z
           M 327.00,322.00
           C 327.00,322.00 327.00,426.00 327.00,426.00
             327.00,426.00 431.00,426.00 431.00,426.00
             431.00,426.00 431.00,322.00 431.00,322.00
             431.00,322.00 327.00,322.00 327.00,322.00 Z
           M 297.44,572.00" />

    <path id="Hash"
        fill="#404040" stroke="none" stroke-width="0"
        d="M 282.00,184.00
           C 282.00,184.00 282.00,278.00 282.00,278.00
             282.00,278.00 188.00,278.00 188.00,278.00
             188.00,278.00 188.00,322.00 188.00,322.00
             188.00,322.00 282.00,322.00 282.00,322.00
             282.00,322.00 282.00,427.00 282.00,427.00
             282.00,427.00 188.00,427.00 188.00,427.00
             188.00,427.00 188.00,471.00 188.00,471.00
             188.00,471.00 282.00,471.00 282.00,471.00
             282.00,471.00 282.00,565.00 282.00,565.00
             282.00,565.00 326.00,565.00 326.00,565.00
             326.00,565.00 326.00,471.00 326.00,471.00
             326.00,471.00 422.00,471.00 422.00,471.00
             424.54,471.01 429.38,470.99 432.01,470.99
             432.01,475.63 432.00,489.81 432.00,494.00
             432.00,494.00 432.00,565.00 432.00,565.00
             432.00,565.00 476.00,565.00 476.00,565.00
             476.00,565.00 476.00,471.00 476.00,471.00
             476.00,471.00 569.00,471.00 569.00,471.00
             569.00,471.00 569.00,427.00 569.00,427.00
             569.00,427.00 476.00,427.00 476.00,427.00
             476.00,427.00 476.00,322.00 476.00,322.00
             476.00,322.00 569.00,322.00 569.00,322.00
             569.00,322.00 569.00,278.00 569.00,278.00
             569.00,278.00 476.00,278.00 476.00,278.00
             476.00,278.00 476.00,184.00 476.00,184.00
             476.00,184.00 432.00,184.00 432.00,184.00
             432.00,184.00 432.00,268.00 432.00,268.00
             432.00,268.00 432.00,277.99 432.00,277.99
             432.00,277.99 431.99,277.99 431.99,277.99
             431.99,277.99 432.00,278.00 432.00,278.00
             432.00,278.00 326.00,278.00 326.00,278.00
             326.00,278.00 326.00,184.00 326.00,184.00
             326.00,184.00 282.00,184.00 282.00,184.00 Z
           M 432.00,322.00
           C 432.00,322.00 432.00,427.00 432.00,427.00
             432.00,427.00 326.00,427.00 326.00,427.00
             326.00,427.00 326.00,322.00 326.00,322.00
             326.00,322.00 432.00,322.00 432.00,322.00 Z
           M 439.52,283.35M 677.33,402.67" />

</svg>
