<?xml version="1.0" encoding="UTF-8" standalone="no"?>
<!DOCTYPE svg PUBLIC "-//W3C//DTD SVG 20010904//EN"
              "http://www.w3.org/TR/2001/REC-SVG-20010904/DTD/svg10.dtd">

<svg xmlns="http://www.w3.org/2000/svg"
     width="198.465mm" height="198.465mm"
     viewBox="0 0 750 750">
  <path id="Inner"
        fill="none" stroke="black" stroke-width="1"
        d="M 351.00,31.21
           C 351.00,31.21 341.00,32.17 341.00,32.17
             341.00,32.17 313.00,36.08 313.00,36.08
             291.97,39.77 270.96,45.90 251.00,53.42
             160.53,87.56 87.52,161.69 53.42,252.00
             1.75,388.89 41.56,544.21 154.00,638.56
             183.17,663.04 219.32,683.75 255.00,697.05
             282.41,707.27 313.80,714.95 343.00,717.09
             343.00,717.09 353.00,718.00 353.00,718.00
             353.00,718.00 391.00,718.00 391.00,718.00
             391.00,718.00 403.00,717.09 403.00,717.09
             431.31,715.14 459.06,709.47 486.00,700.49
             591.82,665.21 673.55,578.48 705.28,472.00
             712.28,448.51 716.41,424.41 718.09,400.00
             718.09,400.00 719.00,388.00 719.00,388.00
             719.00,388.00 719.00,359.00 719.00,359.00
             719.00,359.00 718.09,349.00 718.09,349.00
             716.12,320.30 710.77,292.24 701.34,265.00
             701.34,265.00 692.57,241.00 692.57,241.00
             652.51,147.08 577.25,77.85 480.00,46.66
             454.92,38.61 430.26,33.83 404.00,31.91
             404.00,31.91 392.00,31.21 392.00,31.21
             392.00,31.21 351.00,31.21 351.00,31.21 Z
           M 327.00,183.00
           C 327.00,183.00 327.00,277.00 327.00,277.00
             327.00,277.00 431.00,277.00 431.00,277.00
             431.00,277.00 431.00,183.00 431.00,183.00
             431.00,183.00 477.00,183.00 477.00,183.00
             477.00,183.00 477.00,277.00 477.00,277.00
             477.00,277.00 570.00,277.00 570.00,277.00
             570.00,277.00 570.00,322.00 570.00,322.00
             570.00,322.00 477.00,322.00 477.00,322.00
             477.00,322.00 477.00,426.00 477.00,426.00
             477.00,426.00 570.00,426.00 570.00,426.00
             570.00,426.00 570.00,472.00 570.00,472.00
             570.00,472.00 477.00,472.00 477.00,472.00
             477.00,472.00 477.00,557.00 477.00,557.00
             477.00,557.00 477.00,565.96 477.00,565.96
             477.00,565.96 463.00,566.00 463.00,566.00
             463.00,566.00 431.00,566.00 431.00,566.00
             431.00,566.00 431.00,472.00 431.00,472.00
             431.00,472.00 327.00,472.00 327.00,472.00
             327.00,472.00 327.00,566.00 327.00,566.00
             327.00,566.00 290.00,566.00 290.00,566.00
             290.00,566.00 280.96,566.00 280.96,566.00
             280.96,566.00 281.00,559.00 281.00,559.00
             281.00,559.00 281.00,543.00 281.00,543.00
             281.00,543.00 281.00,472.00 281.00,472.00
             281.00,472.00 188.00,472.00 188.00,472.00
             188.00,472.00 188.00,426.00 188.00,426.00
             188.00,426.00 281.00,426.00 281.00,426.00
             281.00,426.00 281.00,322.00 281.00,322.00
             281.00,322.00 188.00,322.00 188.00,322.00
             188.00,322.00 188.00,277.00 188.00,277.00
             188.00,277.00 281.00,277.00 281.00,277.00
             281.00,277.00 281.00,183.00 281.00,183.00
             281.00,183.00 327.00,183.00 327.00,183.00 Z
           M 327.00,322.00
           C 327.00,322.00 327.00,426.00 327.00,426.00
             327.00,426.00 431.00,426.00 431.00,426.00
             431.00,426.00 431.00,322.00 431.00,322.00
             431.00,322.00 327.00,322.00 327.00,322.00 Z
           M 297.44,572.00" />
</svg>
