<?xml version="1.0" encoding="UTF-8" standalone="no"?>
<!DOCTYPE svg PUBLIC "-//W3C//DTD SVG 20010904//EN"
              "http://www.w3.org/TR/2001/REC-SVG-20010904/DTD/svg10.dtd">

<svg xmlns="http://www.w3.org/2000/svg"
     width="198.465mm" height="198.465mm"
     viewBox="0 0 750 750">
  <path id="Border"
        fill="none" stroke="black" stroke-width="1"
        d="M 366.00,0.42
           C 360.34,1.23 356.57,0.94 351.00,1.00
             351.00,1.00 336.00,2.17 336.00,2.17
             311.77,4.52 283.20,10.80 260.00,18.19
             161.45,49.60 78.48,122.98 35.31,217.00
             -31.70,362.94 0.94,537.92 119.00,647.91
             156.90,683.22 196.66,707.34 245.00,725.42
             276.10,737.06 308.87,744.67 342.00,747.09
             342.00,747.09 352.00,748.00 352.00,748.00
             352.00,748.00 374.00,749.00 374.00,749.00
             414.37,749.06 457.77,742.03 496.00,728.92
             615.14,688.06 705.12,591.85 737.27,470.00
             742.78,449.09 748.97,414.38 749.00,393.00
             749.00,393.00 749.00,355.00 749.00,355.00
             749.00,355.00 748.09,345.00 748.09,345.00
             746.36,320.22 741.99,295.89 735.14,272.00
             700.04,149.46 609.36,56.44 488.00,17.66
             462.45,9.49 435.78,3.78 409.00,1.91
             409.00,1.91 399.00,1.00 399.00,1.00
             388.03,0.88 376.92,-0.91 366.00,0.42 Z
           M 359.00,30.14
           C 359.00,30.14 386.00,30.14 386.00,30.14
             386.00,30.14 398.00,30.91 398.00,30.91
             430.80,33.17 462.11,39.02 493.00,50.58
             535.75,66.57 571.98,87.40 606.00,118.17
             634.54,143.98 659.38,175.14 677.69,209.00
             745.81,334.94 730.54,490.03 636.87,599.00
             608.13,632.43 573.04,660.19 534.00,680.68
             534.00,680.68 524.00,685.26 524.00,685.26
             469.83,711.47 419.65,719.69 360.00,719.00
             360.00,719.00 350.00,718.09 350.00,718.09
             321.71,716.15 295.05,710.52 268.00,702.02
             238.35,692.71 208.83,677.89 183.00,660.67
             153.72,641.15 130.92,620.02 108.43,593.00
             93.55,575.12 81.04,555.55 70.22,535.00
             18.07,435.97 17.84,317.94 67.81,218.00
             109.56,134.50 185.30,72.59 274.00,45.02
             290.73,39.83 310.62,35.57 328.00,33.28
             328.00,33.28 346.00,31.09 346.00,31.09
             346.00,31.09 359.00,30.14 359.00,30.14 Z" />
</svg>
