<?xml version="1.0" encoding="UTF-8" standalone="no"?>
<!DOCTYPE svg PUBLIC "-//W3C//DTD SVG 20010904//EN"
              "http://www.w3.org/TR/2001/REC-SVG-20010904/DTD/svg10.dtd">

<svg xmlns="http://www.w3.org/2000/svg"
     width="198.465mm" height="198.465mm"
     viewBox="0 0 750 750">
  <path id="Hash"
        fill="none" stroke="black" stroke-width="1"
        d="M 282.00,184.00
           C 282.00,184.00 282.00,278.00 282.00,278.00
             282.00,278.00 188.00,278.00 188.00,278.00
             188.00,278.00 188.00,322.00 188.00,322.00
             188.00,322.00 282.00,322.00 282.00,322.00
             282.00,322.00 282.00,427.00 282.00,427.00
             282.00,427.00 188.00,427.00 188.00,427.00
             188.00,427.00 188.00,471.00 188.00,471.00
             188.00,471.00 282.00,471.00 282.00,471.00
             282.00,471.00 282.00,565.00 282.00,565.00
             282.00,565.00 326.00,565.00 326.00,565.00
             326.00,565.00 326.00,471.00 326.00,471.00
             326.00,471.00 422.00,471.00 422.00,471.00
             424.54,471.01 429.38,470.99 432.01,470.99
             432.01,475.63 432.00,489.81 432.00,494.00
             432.00,494.00 432.00,565.00 432.00,565.00
             432.00,565.00 476.00,565.00 476.00,565.00
             476.00,565.00 476.00,471.00 476.00,471.00
             476.00,471.00 569.00,471.00 569.00,471.00
             569.00,471.00 569.00,427.00 569.00,427.00
             569.00,427.00 476.00,427.00 476.00,427.00
             476.00,427.00 476.00,322.00 476.00,322.00
             476.00,322.00 569.00,322.00 569.00,322.00
             569.00,322.00 569.00,278.00 569.00,278.00
             569.00,278.00 476.00,278.00 476.00,278.00
             476.00,278.00 476.00,184.00 476.00,184.00
             476.00,184.00 432.00,184.00 432.00,184.00
             432.00,184.00 432.00,268.00 432.00,268.00
             432.00,268.00 432.00,277.99 432.00,277.99
             432.00,277.99 431.99,277.99 431.99,277.99
             431.99,277.99 432.00,278.00 432.00,278.00
             432.00,278.00 326.00,278.00 326.00,278.00
             326.00,278.00 326.00,184.00 326.00,184.00
             326.00,184.00 282.00,184.00 282.00,184.00 Z
           M 432.00,322.00
           C 432.00,322.00 432.00,427.00 432.00,427.00
             432.00,427.00 326.00,427.00 326.00,427.00
             326.00,427.00 326.00,322.00 326.00,322.00
             326.00,322.00 432.00,322.00 432.00,322.00 Z
           M 439.52,283.35M 677.33,402.67" />
</svg>
