<?xml version="1.0" encoding="UTF-8" standalone="no"?>
<svg xmlns="http://www.w3.org/2000/svg"
     width="285.79mm" height="208.521mm"
     viewBox="0 0 1080 788">
  <path id="Seleção"
        fill="#404040" stroke="#71C80F" stroke-width="2"
        d="M 144.00,33.00
           C 144.00,33.00 144.00,234.00 144.00,234.00
             143.99,240.14 143.10,245.96 142.08,252.00
             137.40,279.71 123.59,301.77 93.00,302.96
             86.93,303.20 75.67,301.07 70.00,298.88
             70.00,298.88 61.00,295.00 61.00,295.00
             61.00,295.00 61.00,334.00 61.00,334.00
             61.00,336.00 60.74,339.67 61.99,341.28
             63.37,343.05 67.84,343.85 70.00,344.35
             75.35,345.58 85.57,346.93 91.00,347.00
             132.34,347.48 165.04,331.77 183.22,293.00
             197.71,262.11 195.00,226.21 195.00,193.00
             195.00,193.00 195.00,33.00 195.00,33.00
             195.00,33.00 144.00,33.00 144.00,33.00 Z
           M 350.00,117.21
           C 350.00,117.21 327.00,121.48 327.00,121.48
             306.02,126.85 285.90,140.05 272.51,157.00
             256.55,177.20 251.06,200.85 249.96,226.00
             249.96,226.00 249.18,234.00 249.18,234.00
             249.18,234.00 249.91,241.00 249.91,241.00
             249.91,241.00 251.29,259.00 251.29,259.00
             254.54,279.99 264.47,300.60 279.28,315.83
             299.11,336.21 321.58,343.43 349.00,346.17
             349.00,346.17 358.00,347.00 358.00,347.00
             382.80,347.29 408.00,342.14 429.00,328.46
             453.68,312.38 468.40,285.47 473.54,257.00
             473.54,257.00 475.82,232.00 475.82,232.00
             475.82,232.00 475.01,221.00 475.01,221.00
             474.35,194.18 466.20,167.01 447.42,147.17
             429.16,127.87 401.44,117.13 375.00,117.21
             375.00,117.21 350.00,117.21 350.00,117.21 Z
           M 678.00,305.00
           C 678.00,322.58 679.39,340.93 674.57,358.00
             672.50,365.35 669.94,371.64 665.64,378.00
             645.44,407.91 603.14,411.18 571.00,403.11
             562.83,401.05 551.64,396.83 544.00,393.22
             544.00,393.22 531.00,387.00 531.00,387.00
             531.00,387.00 531.00,432.00 531.00,432.00
             531.00,432.00 548.00,437.98 548.00,437.98
             557.79,441.01 578.90,444.88 589.00,445.00
             589.00,445.00 606.00,445.97 606.00,445.97
             606.00,445.97 622.00,445.00 622.00,445.00
             622.00,445.00 636.00,443.42 636.00,443.42
             658.74,440.05 681.38,431.47 697.91,414.91
             716.44,396.36 726.96,362.92 727.00,337.00
             727.00,337.00 727.00,122.00 727.00,122.00
             727.00,122.00 678.00,122.00 678.00,122.00
             678.00,122.00 678.00,152.00 678.00,152.00
             673.10,147.84 669.72,140.18 659.00,131.33
             648.73,122.85 631.29,117.06 618.00,117.00
             618.00,117.00 604.00,117.00 604.00,117.00
             568.25,117.42 540.30,140.69 525.64,172.00
             520.98,181.96 517.34,195.13 515.59,206.00
             509.41,244.35 512.44,288.33 538.73,319.00
             548.23,330.08 560.85,338.87 575.00,342.85
             581.92,344.79 592.87,346.82 600.00,346.99
             604.90,347.10 606.46,346.62 611.00,346.17
             611.00,346.17 625.00,344.49 625.00,344.49
             635.23,342.20 649.15,335.72 657.00,328.82
             668.71,318.52 672.43,309.72 678.00,305.00 Z
           M 880.00,117.21
           C 880.00,117.21 857.00,121.48 857.00,121.48
             838.82,126.16 818.64,137.87 806.29,152.00
             787.43,173.59 779.04,202.66 779.00,231.00
             778.95,261.41 785.23,289.77 806.17,313.00
             826.03,335.04 850.40,343.31 879.00,346.17
             879.00,346.17 888.00,347.00 888.00,347.00
             906.96,347.22 931.10,343.55 948.00,334.68
             977.65,319.12 995.84,293.62 1002.40,261.00
             1003.57,255.19 1004.93,246.86 1005.00,241.00
             1005.00,241.00 1005.00,222.00 1005.00,222.00
             1004.96,196.88 995.67,167.86 978.83,149.00
             960.97,129.01 932.72,117.32 906.00,117.21
             906.00,117.21 880.00,117.21 880.00,117.21 Z
           M 353.00,156.29
           C 369.18,154.76 386.71,156.25 400.00,166.53
             417.10,179.76 424.75,203.99 425.00,225.00
             425.16,238.77 424.90,252.76 420.66,266.00
             417.10,277.09 412.66,285.85 404.00,293.91
             391.38,305.65 376.59,308.19 360.00,308.00
             322.19,307.55 300.05,274.20 300.00,239.00
             300.00,239.00 300.00,227.00 300.00,227.00
             300.04,201.41 310.73,173.38 335.00,161.78
             340.71,159.06 346.78,157.32 353.00,156.29 Z
           M 614.00,156.15
           C 614.00,156.15 627.00,156.15 627.00,156.15
             651.70,156.04 671.47,174.51 677.10,198.00
             679.70,208.84 679.02,225.51 679.00,237.00
             678.95,267.25 665.84,301.43 632.00,306.71
             622.49,308.19 614.42,308.59 605.00,306.08
             577.88,298.84 565.21,270.91 563.96,245.00
             563.96,245.00 563.03,235.00 563.03,235.00
             563.03,235.00 563.91,226.00 563.91,226.00
             565.66,200.62 572.57,174.55 597.00,161.78
             602.76,158.78 607.67,157.48 614.00,156.15 Z
           M 883.00,156.29
           C 899.16,154.76 916.70,156.28 930.00,166.53
             950.48,182.31 955.28,211.72 955.00,236.00
             954.91,243.80 952.73,258.58 950.33,266.00
             947.03,276.22 943.56,284.08 935.91,291.96
             923.13,305.13 907.60,308.20 890.00,308.00
             868.67,307.75 848.84,296.06 838.98,277.00
             832.46,264.40 830.86,253.84 829.91,240.00
             829.91,240.00 829.18,233.00 829.18,233.00
             829.18,233.00 830.10,226.00 830.10,226.00
             830.10,226.00 830.10,217.00 830.10,217.00
             832.89,195.80 842.42,173.56 862.00,162.90
             868.51,159.35 875.73,157.49 883.00,156.29 Z
           M 345.00,361.00
           C 345.00,361.00 345.00,407.00 345.00,407.00
             338.86,401.96 337.49,398.34 329.00,396.00
             323.99,395.00 322.05,394.92 317.00,396.00
             310.01,396.91 304.32,399.05 299.18,404.18
             285.07,418.29 283.86,452.49 298.18,466.82
             303.18,471.81 310.08,474.13 317.00,474.68
             323.68,475.21 332.96,472.34 337.91,467.79
             337.91,467.79 345.00,460.00 345.00,460.00
             345.00,460.00 345.00,473.00 345.00,473.00
             345.00,473.00 361.00,473.00 361.00,473.00
             361.00,473.00 361.00,361.00 361.00,361.00
             361.00,361.00 345.00,361.00 345.00,361.00 Z
           M 386.00,416.00
           C 394.18,411.01 405.03,404.99 415.00,408.34
             421.08,410.39 426.85,418.10 423.96,422.69
             422.07,425.69 409.75,426.48 406.00,427.00
             390.89,429.09 379.68,433.90 378.51,451.00
             376.59,479.19 415.03,481.95 424.00,461.00
             424.00,461.00 425.00,473.00 425.00,473.00
             425.00,473.00 441.00,473.00 441.00,473.00
             441.00,473.00 441.00,430.00 441.00,430.00
             441.00,421.14 441.94,412.65 436.36,405.01
             428.34,394.03 412.01,394.10 400.00,396.67
             396.85,397.34 389.71,399.31 387.60,401.65
             385.21,404.28 386.00,412.41 386.00,416.00 Z
           M 323.00,408.33
           C 337.16,407.08 344.83,416.51 345.00,430.00
             345.15,442.95 344.07,458.93 328.00,461.67
             316.68,463.61 308.11,455.60 305.82,445.00
             302.59,430.05 306.00,412.17 323.00,408.33 Z
           M 425.00,435.00
           C 425.00,439.06 425.34,446.37 424.20,450.00
             420.31,462.43 404.49,464.88 398.13,459.57
             392.20,454.61 392.21,443.22 401.02,439.21
             403.36,438.14 406.45,437.52 409.00,437.13
             409.00,437.13 425.00,435.00 425.00,435.00 Z
           M 616.00,507.00
           C 616.00,507.00 616.00,715.00 616.00,715.00
             616.00,715.00 647.00,715.00 647.00,715.00
             647.00,715.00 647.00,507.00 647.00,507.00
             647.00,507.00 616.00,507.00 616.00,507.00 Z
           M 689.00,507.00
           C 689.00,507.00 689.00,715.00 689.00,715.00
             689.00,715.00 721.00,715.00 721.00,715.00
             721.00,715.00 721.00,636.00 721.00,636.00
             721.21,618.47 733.72,596.54 753.00,596.02
             770.68,595.53 778.61,606.89 781.54,623.00
             783.74,635.12 783.00,647.72 783.00,660.00
             783.00,660.00 783.00,715.00 783.00,715.00
             783.00,715.00 814.00,715.00 814.00,715.00
             814.00,715.00 814.00,641.00 814.00,641.00
             814.00,625.16 814.77,607.43 807.22,593.00
             797.65,574.74 779.50,568.94 760.00,571.73
             754.47,572.52 749.07,573.46 744.00,575.99
             735.10,580.44 726.38,589.08 722.00,598.00
             722.00,598.00 721.00,567.00 721.00,567.00
             721.00,567.00 721.00,507.00 721.00,507.00
             721.00,507.00 689.00,507.00 689.00,507.00 Z
           M 284.00,518.00
           C 284.00,518.00 304.31,576.00 304.31,576.00
             304.31,576.00 337.34,670.00 337.34,670.00
             337.34,670.00 353.00,715.00 353.00,715.00
             353.00,715.00 390.00,715.00 390.00,715.00
             390.00,715.00 407.58,665.00 407.58,665.00
             407.58,665.00 439.05,577.00 439.05,577.00
             439.05,577.00 460.00,518.00 460.00,518.00
             460.00,518.00 434.00,518.00 434.00,518.00
             431.96,518.00 428.37,517.74 426.70,518.99
             424.77,520.44 423.14,526.57 422.33,529.00
             422.33,529.00 413.67,555.00 413.67,555.00
             413.67,555.00 385.67,639.00 385.67,639.00
             381.76,650.73 373.25,672.53 373.00,684.00
             373.00,684.00 371.00,684.00 371.00,684.00
             369.92,670.80 363.96,656.66 360.02,644.00
             360.02,644.00 342.67,590.00 342.67,590.00
             342.67,590.00 331.42,556.00 331.42,556.00
             331.42,556.00 322.67,529.00 322.67,529.00
             321.86,526.57 320.23,520.44 318.30,518.99
             316.63,517.74 313.04,518.00 311.00,518.00
             311.00,518.00 284.00,518.00 284.00,518.00 Z
           M 573.00,682.00
           C 565.72,684.69 562.19,688.21 552.00,691.28
             530.63,697.72 504.33,694.66 492.91,673.00
             489.76,667.02 489.18,659.58 488.00,653.00
             488.00,653.00 584.00,653.00 584.00,653.00
             584.00,628.88 584.93,607.63 567.70,588.01
             550.75,568.72 517.18,566.95 495.00,577.32
             485.21,581.90 476.82,589.32 470.49,598.00
             457.10,616.32 456.75,632.44 457.00,654.00
             457.28,677.46 470.57,703.38 493.00,712.55
             511.64,720.16 533.69,719.03 553.00,714.57
             557.55,713.52 569.64,709.75 571.98,705.79
             573.20,703.71 573.00,700.37 573.00,698.00
             573.00,698.00 573.00,682.00 573.00,682.00 Z
           M 857.00,611.00
           C 857.00,611.00 872.00,601.32 872.00,601.32
             889.15,592.20 921.90,588.02 929.09,612.00
             930.61,617.07 930.95,619.76 931.00,625.00
             931.00,625.00 896.00,629.87 896.00,629.87
             881.47,631.89 866.01,634.27 855.09,645.09
             835.48,664.52 838.64,708.84 873.00,716.33
             889.55,719.95 905.72,718.01 918.99,706.68
             918.99,706.68 931.00,693.00 931.00,693.00
             931.00,693.00 931.00,715.00 931.00,715.00
             931.00,715.00 961.00,715.00 961.00,715.00
             961.00,715.00 961.00,634.00 961.00,634.00
             961.00,618.12 961.82,601.36 951.47,588.00
             936.06,568.09 904.21,569.10 882.00,574.01
             876.85,575.15 860.70,580.19 858.02,584.39
             856.78,586.34 857.00,589.73 857.00,592.00
             857.00,592.00 857.00,611.00 857.00,611.00 Z
           M 554.00,631.00
           C 554.00,631.00 488.00,631.00 488.00,631.00
             490.36,618.47 494.10,607.41 505.00,599.64
             517.20,590.94 536.85,591.85 546.47,604.01
             552.89,612.12 554.00,621.07 554.00,631.00 Z
           M 931.00,645.00
           C 931.00,655.15 931.95,665.48 927.65,675.00
             920.46,690.92 897.42,700.59 882.02,690.66
             869.85,682.79 869.94,662.34 882.02,655.07
             892.98,648.46 917.54,648.31 931.00,645.00 Z" />
</svg>
